<svg width="355.3" height="74.5" viewBox="0 0 355.3 74.5" xmlns="http://www.w3.org/2000/svg"><g id="svgGroup" stroke-linecap="round" fill-rule="evenodd" font-size="9pt" stroke="#34313D" stroke-width="0.25mm" fill="#000" style="stroke:##34313D;stroke-width:0.25mm;fill:#000"><path fill="#34313D" d="M 337.9 46.8 L 355.3 73.5 L 342.6 73.5 L 333.3 58.5 L 330.7 53.4 L 324.7 59.9 L 324.7 73.5 L 314.3 73.5 L 314.3 0 L 324.6 0 L 324.6 40.3 L 324.4 48.1 L 341.9 27.6 L 355.2 27.6 L 337.9 46.8 Z M 256.3 73.5 L 256.3 27.6 L 266.9 27.6 L 267 36 A 16.004 16.004 0 0 1 272.496 29.443 A 19.203 19.203 0 0 1 273 29.1 A 16.379 16.379 0 0 1 280.342 26.52 A 20.751 20.751 0 0 1 282.6 26.4 A 27.461 27.461 0 0 1 286.715 26.688 Q 288.867 27.015 290.603 27.712 A 11.961 11.961 0 0 1 293.5 29.35 A 13.727 13.727 0 0 1 297.912 35.394 A 18.098 18.098 0 0 1 298.6 37.6 A 38.052 38.052 0 0 1 299.34 41.622 Q 299.9 45.822 299.9 51.4 L 299.9 73.5 L 289.1 73.5 L 289.1 51.7 Q 289.1 44.829 288.04 40.983 A 13.304 13.304 0 0 0 287.4 39.15 Q 285.715 35.333 280.49 35.3 A 14.461 14.461 0 0 0 280.4 35.3 A 10.662 10.662 0 0 0 276.635 36.014 A 14.518 14.518 0 0 0 274.3 37.15 Q 271.2 39 269.15 42.5 A 14.833 14.833 0 0 0 267.3 47.88 A 19.238 19.238 0 0 0 267.1 50.7 L 267.1 73.5 L 256.3 73.5 Z M 94.2 70.3 L 97.8 61.8 A 23.293 23.293 0 0 0 111.44 66 A 28.235 28.235 0 0 0 111.5 66 A 19.694 19.694 0 0 0 114.117 65.842 Q 116.966 65.458 118.218 64.14 A 3.677 3.677 0 0 0 119.2 61.5 Q 119.2 59.5 117.6 58.4 A 10.753 10.753 0 0 0 116.574 57.787 Q 115.457 57.192 113.731 56.5 A 63.67 63.67 0 0 0 111.9 55.8 L 108.1 54.4 A 38.437 38.437 0 0 1 103.716 52.337 Q 101.552 51.135 99.856 49.756 A 20.692 20.692 0 0 1 98.6 48.65 A 11.17 11.17 0 0 1 95.223 41.787 A 15.554 15.554 0 0 1 95.1 39.8 A 12.798 12.798 0 0 1 95.917 35.135 Q 97.074 32.154 99.868 30.083 A 14.338 14.338 0 0 1 100.05 29.95 Q 105 26.4 113.3 26.4 Q 117.4 26.4 121.35 27.3 A 29.874 29.874 0 0 1 123.638 27.911 Q 125.952 28.636 127.394 29.596 A 9.185 9.185 0 0 1 127.4 29.6 L 123.5 38.2 A 6.462 6.462 0 0 0 122.423 37.348 Q 121.297 36.623 119.585 36.03 A 21.341 21.341 0 0 0 119.35 35.95 A 18.35 18.35 0 0 0 115.534 35.134 A 23.296 23.296 0 0 0 113 35 A 17.532 17.532 0 0 0 110.587 35.151 Q 105.9 35.806 105.9 39.3 A 4.795 4.795 0 0 0 106.162 40.923 Q 106.602 42.154 107.781 42.938 A 5.174 5.174 0 0 0 107.8 42.95 Q 109.273 43.919 112.189 45.039 A 62.519 62.519 0 0 0 114 45.7 Q 114.34 45.785 116.348 46.522 A 300.988 300.988 0 0 1 117.1 46.8 Q 121.417 48.486 124.233 50.491 A 17.064 17.064 0 0 1 126.6 52.5 A 10.876 10.876 0 0 1 129.608 59.034 A 14.753 14.753 0 0 1 129.7 60.7 Q 129.7 67.5 124.55 71 A 19.425 19.425 0 0 1 117.912 73.824 Q 115.339 74.416 112.36 74.489 A 34.658 34.658 0 0 1 111.5 74.5 Q 106.7 74.5 101.55 73.25 Q 97.142 72.18 94.895 70.781 A 8.401 8.401 0 0 1 94.2 70.3 Z M 139.4 70.3 L 143 61.8 A 23.293 23.293 0 0 0 156.64 66 A 28.235 28.235 0 0 0 156.7 66 A 19.694 19.694 0 0 0 159.317 65.842 Q 162.166 65.458 163.418 64.14 A 3.677 3.677 0 0 0 164.4 61.5 Q 164.4 59.5 162.8 58.4 A 10.753 10.753 0 0 0 161.774 57.787 Q 160.657 57.192 158.931 56.5 A 63.67 63.67 0 0 0 157.1 55.8 L 153.3 54.4 A 38.437 38.437 0 0 1 148.916 52.337 Q 146.752 51.135 145.056 49.756 A 20.692 20.692 0 0 1 143.8 48.65 A 11.17 11.17 0 0 1 140.423 41.787 A 15.554 15.554 0 0 1 140.3 39.8 A 12.798 12.798 0 0 1 141.117 35.135 Q 142.274 32.154 145.068 30.083 A 14.338 14.338 0 0 1 145.25 29.95 Q 150.2 26.4 158.5 26.4 Q 162.6 26.4 166.55 27.3 A 29.874 29.874 0 0 1 168.838 27.911 Q 171.152 28.636 172.594 29.596 A 9.185 9.185 0 0 1 172.6 29.6 L 168.7 38.2 A 6.462 6.462 0 0 0 167.623 37.348 Q 166.497 36.623 164.785 36.03 A 21.341 21.341 0 0 0 164.55 35.95 A 18.35 18.35 0 0 0 160.734 35.134 A 23.296 23.296 0 0 0 158.2 35 A 17.532 17.532 0 0 0 155.787 35.151 Q 151.1 35.806 151.1 39.3 A 4.795 4.795 0 0 0 151.362 40.923 Q 151.802 42.154 152.981 42.938 A 5.174 5.174 0 0 0 153 42.95 Q 154.473 43.919 157.389 45.039 A 62.519 62.519 0 0 0 159.2 45.7 Q 159.54 45.785 161.548 46.522 A 300.988 300.988 0 0 1 162.3 46.8 Q 166.617 48.486 169.433 50.491 A 17.064 17.064 0 0 1 171.8 52.5 A 10.876 10.876 0 0 1 174.808 59.034 A 14.753 14.753 0 0 1 174.9 60.7 Q 174.9 67.5 169.75 71 A 19.425 19.425 0 0 1 163.112 73.824 Q 160.539 74.416 157.56 74.489 A 34.658 34.658 0 0 1 156.7 74.5 Q 151.9 74.5 146.75 73.25 Q 142.342 72.18 140.095 70.781 A 8.401 8.401 0 0 1 139.4 70.3 Z M 0 73.5 L 0 0 L 11.3 0 L 11.3 63.5 L 32.4 63.5 L 32.4 73.5 L 0 73.5 Z M 186.8 73.5 L 186.8 0 L 198.1 0 L 198.1 63.5 L 219.2 63.5 L 219.2 73.5 L 186.8 73.5 Z M 84.1 54.3 L 51.1 54.3 A 22.605 22.605 0 0 0 51.991 57.761 Q 53.209 61.238 55.45 63.1 Q 58.192 65.378 62.75 65.734 A 22.488 22.488 0 0 0 64.5 65.8 Q 67.873 65.8 70.406 65.405 A 20.847 20.847 0 0 0 72.4 65 Q 75.5 64.2 78.1 62.8 L 81.4 70.5 A 17.224 17.224 0 0 1 79.272 71.644 Q 77.288 72.55 74.6 73.3 Q 70.3 74.5 64.2 74.5 A 34.28 34.28 0 0 1 58.206 74.004 Q 53.852 73.23 50.5 71.25 A 20.618 20.618 0 0 1 44.474 65.963 A 19.572 19.572 0 0 1 42.4 62.55 A 27.009 27.009 0 0 1 39.831 52.009 A 31.673 31.673 0 0 1 39.8 50.6 A 29.561 29.561 0 0 1 40.539 43.85 A 23.403 23.403 0 0 1 42.85 37.8 Q 45.9 32.3 51.3 29.35 A 24.256 24.256 0 0 1 60.998 26.504 A 29.655 29.655 0 0 1 63.5 26.4 A 30.481 30.481 0 0 1 69.453 26.943 Q 75.669 28.182 79.25 32.25 Q 83.698 37.303 84.304 45.9 A 39.833 39.833 0 0 1 84.4 48.7 A 53.285 53.285 0 0 1 84.202 53.22 A 59.851 59.851 0 0 1 84.1 54.3 Z M 230.1 73.5 L 230.1 27.6 L 241.3 27.6 L 241.3 73.5 L 230.1 73.5 Z M 51.1 46.8 L 73.9 46.8 A 26.245 26.245 0 0 0 73.903 46.377 Q 73.903 42.992 73.003 40.741 A 7.169 7.169 0 0 0 71.2 38.05 A 9.102 9.102 0 0 0 67.682 36.101 Q 66.336 35.688 64.722 35.559 A 19.102 19.102 0 0 0 63.2 35.5 A 14.256 14.256 0 0 0 58.258 36.294 Q 54.052 37.842 52.222 42.407 A 18.937 18.937 0 0 0 51.1 46.8 Z M 235.6 19 Q 232.5 19 230.4 16.9 A 7.046 7.046 0 0 1 228.301 11.797 A 9.082 9.082 0 0 1 228.3 11.7 A 6.366 6.366 0 0 1 230.263 7.034 A 8.16 8.16 0 0 1 230.4 6.9 Q 232.5 4.9 235.6 4.9 Q 238.6 4.9 240.7 6.9 Q 242.8 8.9 242.8 11.7 A 7.722 7.722 0 0 1 242.303 14.509 A 7.034 7.034 0 0 1 240.75 16.9 A 6.862 6.862 0 0 1 235.793 18.998 A 9.009 9.009 0 0 1 235.6 19 Z" vector-effect="non-scaling-stroke"/></g></svg>